<svg xmlns="http://www.w3.org/2000/svg" xmlns:xlink="http://www.w3.org/1999/xlink" width="2000" zoomAndPan="magnify" viewBox="0 0 1500 1499.999933" height="2000" preserveAspectRatio="xMidYMid meet" version="1.0"><defs><g/><clipPath id="9ccdf49a5a"><path d="M 750 0 C 335.785156 0 0 335.785156 0 750 C 0 1164.214844 335.785156 1500 750 1500 C 1164.214844 1500 1500 1164.214844 1500 750 C 1500 335.785156 1164.214844 0 750 0 Z M 750 0 " clip-rule="nonzero"/></clipPath><clipPath id="d5d1e3a5cd"><path d="M 0 0 L 1500 0 L 1500 1500 L 0 1500 Z M 0 0 " clip-rule="nonzero"/></clipPath><clipPath id="52dca60484"><path d="M 750 0 C 335.785156 0 0 335.785156 0 750 C 0 1164.214844 335.785156 1500 750 1500 C 1164.214844 1500 1500 1164.214844 1500 750 C 1500 335.785156 1164.214844 0 750 0 Z M 750 0 " clip-rule="nonzero"/></clipPath><clipPath id="a7f1e50875"><rect x="0" width="1500" y="0" height="1500"/></clipPath><clipPath id="ab5c144a69"><rect x="0" width="1316" y="0" height="1500"/></clipPath></defs><g clip-path="url(#9ccdf49a5a)"><g transform="matrix(1, 0, 0, 1, 0, 0.000000000000112861)"><g clip-path="url(#a7f1e50875)"><g clip-path="url(#d5d1e3a5cd)"><g clip-path="url(#52dca60484)"><rect x="-330" width="2160" fill="#0b1d2e" height="2159.999904" y="-329.999985" fill-opacity="1"/></g></g></g></g></g><g transform="matrix(1, 0, 0, 1, 184, 0.000000000000112861)"><g clip-path="url(#ab5c144a69)"><g fill="#ffffff" fill-opacity="1"><g transform="translate(0.211385, 1186.751235)"><g><path d="M 65.40625 -457.84375 C 65.40625 -409 74.78125 -356.890625 93.53125 -301.515625 C 112.28125 -246.140625 141.710938 -194.90625 181.828125 -147.8125 C 221.941406 -100.71875 272.957031 -61.691406 334.875 -30.734375 C 396.789062 0.222656 470.914062 15.703125 557.25 15.703125 C 615.675781 15.703125 668.65625 8.507812 716.1875 -5.875 C 763.71875 -20.269531 806.445312 -39.675781 844.375 -64.09375 C 882.3125 -88.507812 915.234375 -116.632812 943.140625 -148.46875 C 971.046875 -180.300781 993.9375 -213.875 1011.8125 -249.1875 C 1029.695312 -284.507812 1043.21875 -320.046875 1052.375 -355.796875 C 1061.53125 -391.554688 1066.109375 -425.570312 1066.109375 -457.84375 C 1066.109375 -506.675781 1056.078125 -558.78125 1036.015625 -614.15625 C 1015.960938 -669.53125 985.003906 -720.765625 943.140625 -767.859375 C 901.285156 -814.953125 848.304688 -853.976562 784.203125 -884.9375 C 720.109375 -915.894531 644.457031 -931.375 557.25 -931.375 C 470.914062 -931.375 396.789062 -916.113281 334.875 -885.59375 C 272.957031 -855.070312 221.941406 -816.484375 181.828125 -769.828125 C 141.710938 -723.171875 112.28125 -671.9375 93.53125 -616.125 C 74.78125 -560.3125 65.40625 -507.550781 65.40625 -457.84375 Z M 193.59375 -457.84375 C 193.59375 -518.882812 202.96875 -574.910156 221.71875 -625.921875 C 240.46875 -676.941406 266.191406 -720.765625 298.890625 -757.390625 C 331.597656 -794.015625 370.191406 -822.570312 414.671875 -843.0625 C 459.148438 -863.5625 507.550781 -873.8125 559.875 -873.8125 C 611.320312 -873.8125 659.9375 -863.5625 705.71875 -843.0625 C 751.507812 -822.570312 791.625 -794.015625 826.0625 -757.390625 C 860.507812 -720.765625 887.765625 -676.941406 907.828125 -625.921875 C 927.890625 -574.910156 937.921875 -518.882812 937.921875 -457.84375 C 937.921875 -396.789062 927.890625 -340.753906 907.828125 -289.734375 C 887.765625 -238.722656 860.507812 -194.90625 826.0625 -158.28125 C 791.625 -121.65625 751.507812 -93.09375 705.71875 -72.59375 C 659.9375 -52.101562 611.320312 -41.859375 559.875 -41.859375 C 507.550781 -41.859375 459.148438 -52.101562 414.671875 -72.59375 C 370.191406 -93.09375 331.597656 -121.65625 298.890625 -158.28125 C 266.191406 -194.90625 240.46875 -238.722656 221.71875 -289.734375 C 202.96875 -340.753906 193.59375 -396.789062 193.59375 -457.84375 Z M 193.59375 -457.84375 "/></g></g></g></g></g><path stroke-linecap="butt" transform="matrix(0.75, 0, 0, 0.75, 36.381563, 683.624921)" fill="none" stroke-linejoin="miter" d="M 0.00166534 88.500113 L 1902.980996 88.500113 " stroke="#0b1d2e" stroke-width="177" stroke-opacity="1" stroke-miterlimit="4"/><path stroke-linecap="butt" transform="matrix(0.75, 0, 0, 0.75, 36.381563, 739.254516)" fill="none" stroke-linejoin="miter" d="M 0.00166534 16.999188 L 1902.980996 16.999188 " stroke="#a68a64" stroke-width="34" stroke-opacity="1" stroke-miterlimit="4"/></svg>