<svg xmlns="http://www.w3.org/2000/svg" xmlns:xlink="http://www.w3.org/1999/xlink" width="2000" zoomAndPan="magnify" viewBox="0 0 1500 141.750002" height="189" preserveAspectRatio="xMidYMid meet" version="1.0"><defs><g/><clipPath id="801181b449"><path d="M 10 0 L 1490 0 L 1490 141.5 L 10 141.5 Z M 10 0 " clip-rule="nonzero"/></clipPath><clipPath id="8847ec5617"><path d="M 140 0 L 1479.816406 0 L 1479.816406 141.5 L 140 141.5 Z M 140 0 " clip-rule="nonzero"/></clipPath><clipPath id="62f09b4103"><rect x="0" width="1340" y="0" height="142"/></clipPath><clipPath id="05ce09c857"><path d="M 0.425781 66 L 1457 66 L 1457 82 L 0.425781 82 Z M 0.425781 66 " clip-rule="nonzero"/></clipPath><clipPath id="7ab51d64ec"><rect x="0" width="1480" y="0" height="142"/></clipPath></defs><g clip-path="url(#801181b449)"><g transform="matrix(1, 0, 0, 1, 10, -0.000000000000007933)"><g clip-path="url(#7ab51d64ec)"><g clip-path="url(#8847ec5617)"><g transform="matrix(1, 0, 0, 1, 140, -0.000000000000007933)"><g clip-path="url(#62f09b4103)"><g fill="#ffffff" fill-opacity="1"><g transform="translate(0.69986, 122.276217)"><g><path d="M 7.296875 -51.0625 C 7.296875 -45.613281 8.335938 -39.800781 10.421875 -33.625 C 12.515625 -27.445312 15.796875 -21.734375 20.265625 -16.484375 C 24.742188 -11.234375 30.4375 -6.878906 37.34375 -3.421875 C 44.25 0.0234375 52.515625 1.75 62.140625 1.75 C 68.660156 1.75 74.566406 0.945312 79.859375 -0.65625 C 85.160156 -2.257812 89.925781 -4.421875 94.15625 -7.140625 C 98.394531 -9.867188 102.066406 -13.003906 105.171875 -16.546875 C 108.285156 -20.097656 110.835938 -23.84375 112.828125 -27.78125 C 114.828125 -31.726562 116.335938 -35.691406 117.359375 -39.671875 C 118.378906 -43.660156 118.890625 -47.457031 118.890625 -51.0625 C 118.890625 -56.5 117.769531 -62.304688 115.53125 -68.484375 C 113.289062 -74.660156 109.835938 -80.375 105.171875 -85.625 C 100.503906 -90.875 94.597656 -95.222656 87.453125 -98.671875 C 80.304688 -102.128906 71.867188 -103.859375 62.140625 -103.859375 C 52.515625 -103.859375 44.25 -102.15625 37.34375 -98.75 C 30.4375 -95.351562 24.742188 -91.050781 20.265625 -85.84375 C 15.796875 -80.644531 12.515625 -74.929688 10.421875 -68.703125 C 8.335938 -62.484375 7.296875 -56.601562 7.296875 -51.0625 Z M 21.59375 -51.0625 C 21.59375 -57.863281 22.632812 -64.109375 24.71875 -69.796875 C 26.8125 -75.484375 29.679688 -80.367188 33.328125 -84.453125 C 36.972656 -88.546875 41.273438 -91.734375 46.234375 -94.015625 C 51.203125 -96.296875 56.601562 -97.4375 62.4375 -97.4375 C 68.175781 -97.4375 73.597656 -96.296875 78.703125 -94.015625 C 83.804688 -91.734375 88.273438 -88.546875 92.109375 -84.453125 C 95.953125 -80.367188 98.992188 -75.484375 101.234375 -69.796875 C 103.472656 -64.109375 104.59375 -57.863281 104.59375 -51.0625 C 104.59375 -44.25 103.472656 -38 101.234375 -32.3125 C 98.992188 -26.625 95.953125 -21.738281 92.109375 -17.65625 C 88.273438 -13.570312 83.804688 -10.382812 78.703125 -8.09375 C 73.597656 -5.8125 68.175781 -4.671875 62.4375 -4.671875 C 56.601562 -4.671875 51.203125 -5.8125 46.234375 -8.09375 C 41.273438 -10.382812 36.972656 -13.570312 33.328125 -17.65625 C 29.679688 -21.738281 26.8125 -26.625 24.71875 -32.3125 C 22.632812 -38 21.59375 -44.25 21.59375 -51.0625 Z M 21.59375 -51.0625 "/></g></g></g><g fill="#ffffff" fill-opacity="1"><g transform="translate(243.576073, 122.276217)"><g><path d="M 17.5 -102.109375 L 17.5 0 L 30.78125 0 L 30.78125 -45.078125 L 37.203125 -45.078125 C 39.921875 -45.078125 42.179688 -44.832031 43.984375 -44.34375 C 45.785156 -43.851562 47.414062 -43.023438 48.875 -41.859375 C 50.332031 -40.691406 51.691406 -39.1875 52.953125 -37.34375 C 54.210938 -35.5 55.71875 -33.210938 57.46875 -30.484375 L 69 -13.421875 C 70.457031 -11.179688 71.890625 -9.132812 73.296875 -7.28125 C 74.710938 -5.4375 76.242188 -3.859375 77.890625 -2.546875 C 79.546875 -1.234375 81.421875 -0.191406 83.515625 0.578125 C 85.609375 1.359375 88.113281 1.75 91.03125 1.75 C 93.164062 1.75 94.910156 1.648438 96.265625 1.453125 C 97.628906 1.265625 98.992188 0.78125 100.359375 0 L 100.359375 -5.390625 C 99.867188 -5.296875 99.378906 -5.222656 98.890625 -5.171875 C 98.410156 -5.128906 97.925781 -5.109375 97.4375 -5.109375 C 95.394531 -5.109375 93.597656 -5.398438 92.046875 -5.984375 C 90.492188 -6.566406 89.035156 -7.414062 87.671875 -8.53125 C 86.304688 -9.65625 84.988281 -11.019531 83.71875 -12.625 C 82.457031 -14.226562 81.148438 -16.050781 79.796875 -18.09375 C 75.710938 -24.019531 72.550781 -28.757812 70.3125 -32.3125 C 68.070312 -35.863281 66.296875 -38.609375 64.984375 -40.546875 C 63.671875 -42.492188 62.597656 -43.90625 61.765625 -44.78125 C 60.941406 -45.65625 59.945312 -46.382812 58.78125 -46.96875 L 57.328125 -47.703125 L 57.328125 -48.28125 C 61.992188 -48.570312 66.003906 -49.59375 69.359375 -51.34375 C 72.710938 -53.09375 75.457031 -55.28125 77.59375 -57.90625 C 79.738281 -60.53125 81.296875 -63.375 82.265625 -66.4375 C 83.242188 -69.507812 83.734375 -72.503906 83.734375 -75.421875 C 83.734375 -78.046875 83.222656 -80.910156 82.203125 -84.015625 C 81.179688 -87.128906 79.429688 -90.023438 76.953125 -92.703125 C 74.472656 -95.378906 71.09375 -97.613281 66.8125 -99.40625 C 62.53125 -101.207031 57.132812 -102.109375 50.625 -102.109375 Z M 30.78125 -95.6875 L 45.515625 -95.6875 C 49.210938 -95.6875 52.539062 -95.148438 55.5 -94.078125 C 58.46875 -93.015625 61.019531 -91.535156 63.15625 -89.640625 C 65.300781 -87.742188 66.929688 -85.484375 68.046875 -82.859375 C 69.171875 -80.234375 69.734375 -77.363281 69.734375 -74.25 C 69.734375 -71.625 69.222656 -68.972656 68.203125 -66.296875 C 67.179688 -63.617188 65.644531 -61.1875 63.59375 -59 C 61.550781 -56.8125 59.046875 -55.035156 56.078125 -53.671875 C 53.117188 -52.316406 49.695312 -51.640625 45.8125 -51.640625 L 30.78125 -51.640625 Z M 30.78125 -95.6875 "/></g></g></g><g fill="#ffffff" fill-opacity="1"><g transform="translate(465.009858, 122.276217)"><g><path d="M 23.34375 -102.109375 L 23.34375 0 L 36.609375 0 L 36.609375 -102.109375 Z M 23.34375 -102.109375 "/></g></g></g><g fill="#ffffff" fill-opacity="1"><g transform="translate(641.6625, 122.276217)"><g><path d="M 8.015625 -102.109375 L 8.015625 -94.09375 L 69.734375 -94.09375 L 4.375 0 L 92.78125 0 L 92.78125 -8.015625 L 25.53125 -8.015625 L 90.296875 -102.109375 Z M 8.015625 -102.109375 "/></g></g></g><g fill="#ffffff" fill-opacity="1"><g transform="translate(855.511266, 122.276217)"><g><path d="M 7.296875 -51.0625 C 7.296875 -45.613281 8.335938 -39.800781 10.421875 -33.625 C 12.515625 -27.445312 15.796875 -21.734375 20.265625 -16.484375 C 24.742188 -11.234375 30.4375 -6.878906 37.34375 -3.421875 C 44.25 0.0234375 52.515625 1.75 62.140625 1.75 C 68.660156 1.75 74.566406 0.945312 79.859375 -0.65625 C 85.160156 -2.257812 89.925781 -4.421875 94.15625 -7.140625 C 98.394531 -9.867188 102.066406 -13.003906 105.171875 -16.546875 C 108.285156 -20.097656 110.835938 -23.84375 112.828125 -27.78125 C 114.828125 -31.726562 116.335938 -35.691406 117.359375 -39.671875 C 118.378906 -43.660156 118.890625 -47.457031 118.890625 -51.0625 C 118.890625 -56.5 117.769531 -62.304688 115.53125 -68.484375 C 113.289062 -74.660156 109.835938 -80.375 105.171875 -85.625 C 100.503906 -90.875 94.597656 -95.222656 87.453125 -98.671875 C 80.304688 -102.128906 71.867188 -103.859375 62.140625 -103.859375 C 52.515625 -103.859375 44.25 -102.15625 37.34375 -98.75 C 30.4375 -95.351562 24.742188 -91.050781 20.265625 -85.84375 C 15.796875 -80.644531 12.515625 -74.929688 10.421875 -68.703125 C 8.335938 -62.484375 7.296875 -56.601562 7.296875 -51.0625 Z M 21.59375 -51.0625 C 21.59375 -57.863281 22.632812 -64.109375 24.71875 -69.796875 C 26.8125 -75.484375 29.679688 -80.367188 33.328125 -84.453125 C 36.972656 -88.546875 41.273438 -91.734375 46.234375 -94.015625 C 51.203125 -96.296875 56.601562 -97.4375 62.4375 -97.4375 C 68.175781 -97.4375 73.597656 -96.296875 78.703125 -94.015625 C 83.804688 -91.734375 88.273438 -88.546875 92.109375 -84.453125 C 95.953125 -80.367188 98.992188 -75.484375 101.234375 -69.796875 C 103.472656 -64.109375 104.59375 -57.863281 104.59375 -51.0625 C 104.59375 -44.25 103.472656 -38 101.234375 -32.3125 C 98.992188 -26.625 95.953125 -21.738281 92.109375 -17.65625 C 88.273438 -13.570312 83.804688 -10.382812 78.703125 -8.09375 C 73.597656 -5.8125 68.175781 -4.671875 62.4375 -4.671875 C 56.601562 -4.671875 51.203125 -5.8125 46.234375 -8.09375 C 41.273438 -10.382812 36.972656 -13.570312 33.328125 -17.65625 C 29.679688 -21.738281 26.8125 -26.625 24.71875 -32.3125 C 22.632812 -38 21.59375 -44.25 21.59375 -51.0625 Z M 21.59375 -51.0625 "/></g></g></g><g fill="#ffffff" fill-opacity="1"><g transform="translate(1098.387478, 122.276217)"><g><path d="M 99.78125 -102.109375 L 99.78125 -24.0625 L 99.1875 -24.0625 L 18.234375 -103.859375 L 17.5 -103.859375 L 17.5 0 L 24.21875 0 L 24.21875 -78.046875 L 24.796875 -78.046875 L 105.765625 1.75 L 106.484375 1.75 L 106.484375 -102.109375 Z M 99.78125 -102.109375 "/></g></g></g></g></g></g><g clip-path="url(#05ce09c857)"><path stroke-linecap="butt" transform="matrix(0.748689, 0, 0, 0.748689, 8.721253, 66.049768)" fill="none" stroke-linejoin="miter" d="M 0.00187461 10.498869 L 1922.659437 10.498869 " stroke="#0b1d2e" stroke-width="21" stroke-opacity="1" stroke-miterlimit="4"/></g><path stroke-linecap="butt" transform="matrix(0.748689, -0.000000000000000093, 0.000000000000000093, 0.748689, 31.80287, 70.951557)" fill="none" stroke-linejoin="miter" d="M 0.00242776 3.497788 L 1922.65999 3.497788 " stroke="#a68a64" stroke-width="7" stroke-opacity="1" stroke-miterlimit="4"/></g></g></g></svg>